<svg width="128" height="128" viewBox="0 0 128 128" fill="none" xmlns="http://www.w3.org/2000/svg">
<path d="M64.0018 25.5994C57.3269 25.6079 50.9278 28.2632 46.2079 32.9831C41.488 37.703 38.8327 44.1021 38.8242 50.777H51.6242C51.6242 43.9482 57.1794 38.3994 64.0018 38.3994C70.8242 38.3994 76.3794 43.9482 76.3794 50.777C76.3794 54.6042 73.301 57.3818 68.597 61.1834C67.0603 62.3872 65.5844 63.6667 64.1746 65.017C57.7874 71.3978 57.6018 78.1754 57.6018 78.9306V83.1994H70.4018L70.3954 79.1482C70.4018 79.0458 70.6066 76.6778 73.2178 74.073C74.1778 73.113 75.3874 72.153 76.6418 71.1418C81.6274 67.1034 89.173 61.0042 89.173 50.777C89.1679 44.1022 86.5146 37.7021 81.7953 32.9816C77.0761 28.2612 70.6767 25.6062 64.0018 25.5994ZM57.6018 89.5994H70.4018V102.399H57.6018V89.5994Z" fill="black"/>
<path d="M64 0C28.7104 0 0 28.7104 0 64C0 99.2896 28.7104 128 64 128C99.2896 128 128 99.2896 128 64C128 28.7104 99.2896 0 64 0ZM64 115.2C35.7696 115.2 12.8 92.2304 12.8 64C12.8 35.7696 35.7696 12.8 64 12.8C92.2304 12.8 115.2 35.7696 115.2 64C115.2 92.2304 92.2304 115.2 64 115.2Z" fill="black"/>
</svg>
