<svg width="65" height="128" viewBox="0 0 65 128" fill="none" xmlns="http://www.w3.org/2000/svg">
<path d="M9.13868 127.983C7.00716 127.988 4.94147 127.245 3.3002 125.885C2.37646 125.119 1.61288 124.179 1.05319 123.118C0.493494 122.056 0.148692 120.895 0.0385287 119.7C-0.0716349 118.505 0.0550056 117.3 0.411194 116.154C0.767382 115.009 1.34611 113.944 2.11426 113.022L42.9836 64.1251L3.57388 15.1366C2.8161 14.2035 2.25021 13.1298 1.90874 11.9772C1.56726 10.8247 1.45693 9.61601 1.5841 8.42069C1.71126 7.22536 2.0734 6.06696 2.64971 5.01205C3.22602 3.95714 4.00514 3.02652 4.94227 2.2737C5.88616 1.44321 6.99151 0.816779 8.18896 0.433729C9.38642 0.0506786 10.6501 -0.080721 11.9008 0.0477702C13.1514 0.176261 14.362 0.561872 15.4566 1.1804C16.5511 1.79893 17.506 2.63703 18.2613 3.64209L62.3236 58.3779C63.6654 60.0102 64.3989 62.0577 64.3989 64.1707C64.3989 66.2838 63.6654 68.3313 62.3236 69.9636L16.7105 124.699C15.7953 125.803 14.6328 126.676 13.3172 127.247C12.0016 127.817 10.5701 128.07 9.13868 127.983Z" fill="black"/>
</svg>
