<svg width="128" height="128" viewBox="0 0 128 128" fill="none" xmlns="http://www.w3.org/2000/svg">
<path d="M68.7542 2.09454C68.1545 1.43483 67.4236 0.90772 66.6084 0.547022C65.7931 0.186324 64.9114 0 64.0199 0C63.1284 0 62.2468 0.186324 61.4315 0.547022C60.6162 0.90772 59.8853 1.43483 59.2857 2.09454L1.70695 66.0709C0.857904 66.9863 0.295275 68.1302 0.0884183 69.3615C-0.118439 70.5928 0.0395172 71.8577 0.542816 73.0003C1.04611 74.143 1.87276 75.1133 2.92085 75.7919C3.96894 76.4704 5.19267 76.8274 6.4412 76.8189H19.2365V121.602C19.2365 123.299 19.9105 124.926 21.1103 126.126C22.3101 127.326 23.9374 128 25.6341 128H102.406C104.102 128 105.73 127.326 106.93 126.126C108.129 124.926 108.803 123.299 108.803 121.602V76.8189H121.599C123.295 76.8189 124.923 76.1449 126.122 74.9451C127.322 73.7453 127.996 72.118 127.996 70.4213C128.008 68.8137 127.414 67.2605 126.333 66.0709L68.7542 2.09454Z" fill="black"/>
</svg>
