<svg width="128" height="128" viewBox="0 0 128 128" fill="none" xmlns="http://www.w3.org/2000/svg">
<path d="M64.0004 83.2C52.2244 83.2 51.2004 77.696 51.2004 76.8H38.4004C38.4004 82.688 42.6244 93.12 57.6004 95.488V102.4H70.4004V95.488C83.2004 93.312 89.6004 85.056 89.6004 76.8C89.6004 69.632 86.2724 57.6 64.0004 57.6C51.2004 57.6 51.2004 53.568 51.2004 51.2C51.2004 48.832 55.6804 44.8 64.0004 44.8C72.3204 44.8 72.8964 48.896 72.9604 51.2H85.7604C85.6739 46.84 84.1058 42.6394 81.314 39.2893C78.5223 35.9392 74.6733 33.6393 70.4004 32.768V25.6H57.6004V32.576C44.8004 34.688 38.4004 42.944 38.4004 51.2C38.4004 58.368 41.7284 70.4 64.0004 70.4C76.8004 70.4 76.8004 74.752 76.8004 76.8C76.8004 78.848 72.8324 83.2 64.0004 83.2Z" fill="black"/>
<path d="M19.2 0H0V12.8H12.8V121.6C12.8 123.297 13.4743 124.925 14.6745 126.125C15.8748 127.326 17.5026 128 19.2 128H108.8C110.497 128 112.125 127.326 113.325 126.125C114.526 124.925 115.2 123.297 115.2 121.6V12.8H128V0H19.2ZM102.4 115.2H25.6V12.8H102.4V115.2Z" fill="black"/>
</svg>
