<svg width="105" height="130" viewBox="0 0 105 130" fill="none" xmlns="http://www.w3.org/2000/svg">
<path d="M52.2 71.4C62.8039 71.4 71.4 62.8039 71.4 52.2C71.4 41.5961 62.8039 33 52.2 33C41.5961 33 33 41.5961 33 52.2C33 62.8039 41.5961 71.4 52.2 71.4Z" stroke="#29554D" stroke-width="2" stroke-linecap="round" stroke-linejoin="round"/>
<path d="M52.2 1C38.6209 1 25.598 6.39427 15.9961 15.9961C6.39427 25.598 1 38.6209 1 52.2C1 64.3088 3.5728 72.232 10.6 81L52.2 129L93.8 81C100.827 72.232 103.4 64.3088 103.4 52.2C103.4 38.6209 98.0057 25.598 88.4039 15.9961C78.802 6.39427 65.7791 1 52.2 1V1Z" stroke="#29554D" stroke-width="2" stroke-linecap="round" stroke-linejoin="round"/>
</svg>
