<svg width="101" height="78" viewBox="0 0 101 78" fill="none" xmlns="http://www.w3.org/2000/svg">
<path fill-rule="evenodd" clip-rule="evenodd" d="M41.3708 0C30.9959 0 22.5854 8.41048 22.5854 18.7853C22.5854 20.8163 22.9077 22.7719 23.504 24.604C21.4527 25.6978 20.0566 27.8586 20.0566 30.3455C20.0566 33.9368 22.968 36.8482 26.5593 36.8482C28.4751 36.8482 30.1975 36.0196 31.3875 34.7013C34.2798 36.5192 37.7025 37.5707 41.3708 37.5707H65.2137C75.5886 37.5707 83.999 29.1602 83.999 18.7853C83.999 8.41048 75.5886 0 65.2137 0H41.3708Z" fill="#29554D"/>
<circle cx="18.2513" cy="37.9319" r="3.25131" fill="#29554D"/>
<circle cx="39.9268" cy="19.1466" r="4.69634" fill="#A84E2F"/>
<circle cx="53.6553" cy="19.1466" r="4.69634" fill="#BDCCD4"/>
<circle cx="67.3819" cy="19.1466" r="4.69634" fill="white"/>
<path d="M100.5 71.9791C100.5 73.0539 99.6287 73.9252 98.5539 73.9252C97.4792 73.9252 96.6079 73.0539 96.6079 71.9791C96.6079 70.9043 97.4792 70.0331 98.5539 70.0331C99.6287 70.0331 100.5 70.9043 100.5 71.9791Z" fill="black"/>
<path d="M14.234 77.2891H11.0647V70.1165H11.0091C10.7497 70.5057 10.4438 70.8486 10.0917 71.1451C9.73956 71.4231 9.35035 71.6548 8.92407 71.8401C8.49779 72.0255 8.05297 72.1552 7.58963 72.2293C7.12628 72.322 6.66293 72.3683 6.19959 72.3683C5.14315 72.3683 4.22573 72.1645 3.4473 71.7567C2.66888 71.3304 2.02019 70.7744 1.50124 70.0887C1.00083 69.3844 0.620885 68.5782 0.361411 67.67C0.12047 66.7618 0 65.8259 0 64.8621C0 63.8057 0.139004 62.8141 0.417012 61.8874C0.695021 60.9607 1.11203 60.1545 1.66805 59.4688C2.22407 58.7645 2.91909 58.2177 3.75311 57.8285C4.60567 57.4208 5.59723 57.2169 6.7278 57.2169C7.6545 57.2169 8.51632 57.4022 9.31328 57.7729C10.1102 58.125 10.7311 58.7181 11.1759 59.5522H11.2315V57.6061H14.234V77.2891ZM3.16929 64.8065C3.16929 65.4367 3.23416 66.0576 3.3639 66.6692C3.51217 67.2623 3.74385 67.7997 4.05892 68.2816C4.39253 68.745 4.80954 69.1249 5.30996 69.4215C5.81037 69.718 6.42199 69.8663 7.14481 69.8663C8.51632 69.8663 9.52642 69.4029 10.1751 68.4762C10.8423 67.531 11.1759 66.3078 11.1759 64.8065C11.1759 63.2311 10.8331 61.9894 10.1473 61.0812C9.48008 60.173 8.47925 59.719 7.14481 59.719C6.49613 59.719 5.92158 59.8672 5.42116 60.1638C4.92075 60.4418 4.50373 60.8217 4.17012 61.3036C3.83651 61.767 3.58631 62.3044 3.4195 62.9161C3.2527 63.5277 3.16929 64.1578 3.16929 64.8065Z" fill="black"/>
<path d="M36.3537 68.782C36.3537 69.1712 36.4 69.4493 36.4927 69.6161C36.6039 69.7829 36.8078 69.8663 37.1043 69.8663C37.197 69.8663 37.3082 69.8663 37.4379 69.8663C37.5677 69.8663 37.716 69.8477 37.8828 69.8107V72.0069C37.7716 72.044 37.6233 72.0811 37.4379 72.1181C37.2711 72.1737 37.0951 72.2201 36.9097 72.2571C36.7244 72.2942 36.5391 72.322 36.3537 72.3405C36.1684 72.3591 36.0108 72.3683 35.8811 72.3683C35.2324 72.3683 34.6949 72.2386 34.2687 71.9791C33.8424 71.7197 33.5644 71.2656 33.4346 70.6169C32.8045 71.2285 32.0261 71.6733 31.0994 71.9513C30.1912 72.2293 29.3108 72.3683 28.4583 72.3683C27.8096 72.3683 27.1887 72.2757 26.5956 72.0903C26.0025 71.9235 25.4743 71.6733 25.011 71.3397C24.5662 70.9876 24.2047 70.552 23.9267 70.0331C23.6673 69.4956 23.5375 68.8747 23.5375 68.1704C23.5375 67.2808 23.6951 66.558 24.0101 66.0019C24.3438 65.4459 24.77 65.0104 25.289 64.6953C25.8265 64.3802 26.4196 64.1578 27.0682 64.0281C27.7355 63.8798 28.4027 63.7686 29.0699 63.6945C29.6444 63.5833 30.1912 63.5091 30.7101 63.4721C31.2291 63.4165 31.6832 63.3331 32.0724 63.2219C32.4801 63.1107 32.7952 62.9439 33.0176 62.7215C33.2586 62.4805 33.379 62.1284 33.379 61.665C33.379 61.2573 33.2771 60.9237 33.0732 60.6642C32.8879 60.4047 32.6469 60.2101 32.3504 60.0804C32.0724 59.9321 31.7573 59.8394 31.4052 59.8024C31.053 59.7468 30.7194 59.719 30.4043 59.719C29.5147 59.719 28.7826 59.9043 28.2081 60.275C27.6335 60.6457 27.3092 61.2202 27.235 61.9986H24.0657C24.1213 61.0719 24.3438 60.3028 24.733 59.6912C25.1222 59.0795 25.6133 58.5884 26.2064 58.2177C26.818 57.847 27.5038 57.5876 28.2637 57.4393C29.0236 57.291 29.802 57.2169 30.5989 57.2169C31.3032 57.2169 31.9983 57.291 32.684 57.4393C33.3698 57.5876 33.9814 57.8285 34.5189 58.1621C35.0749 58.4957 35.5197 58.9313 35.8533 59.4688C36.1869 59.9877 36.3537 60.6271 36.3537 61.387V68.782ZM33.1844 64.7787C32.7025 65.0938 32.1095 65.2884 31.4052 65.3625C30.7009 65.4181 29.9966 65.5108 29.2923 65.6405C28.9587 65.6961 28.6343 65.7795 28.3193 65.8907C28.0042 65.9834 27.7262 66.1224 27.4852 66.3078C27.2443 66.4746 27.0497 66.7062 26.9014 67.0028C26.7717 67.2808 26.7068 67.6237 26.7068 68.0314C26.7068 68.3836 26.8088 68.6801 27.0126 68.921C27.2165 69.162 27.4574 69.3566 27.7355 69.5049C28.032 69.6346 28.3471 69.7273 28.6807 69.7829C29.0328 69.8385 29.3479 69.8663 29.6259 69.8663C29.9781 69.8663 30.358 69.8199 30.7657 69.7273C31.1735 69.6346 31.5534 69.4771 31.9056 69.2546C32.2763 69.0322 32.5821 68.7542 32.823 68.4206C33.0639 68.0685 33.1844 67.6422 33.1844 67.1418V64.7787Z" fill="black"/>
<path d="M39.2079 57.6061H42.2104V59.719L42.266 59.7746C42.7478 58.9776 43.378 58.3567 44.1564 57.9119C44.9348 57.4486 45.7967 57.2169 46.7419 57.2169C48.3173 57.2169 49.559 57.6246 50.4672 58.4401C51.3754 59.2556 51.8294 60.4789 51.8294 62.1098V71.9791H48.6601V62.9439C48.6231 61.8133 48.3821 60.9978 47.9373 60.4974C47.4925 59.9784 46.7975 59.719 45.8523 59.719C45.3148 59.719 44.8329 59.8209 44.4066 60.0248C43.9803 60.2101 43.6189 60.4789 43.3224 60.831C43.0258 61.1646 42.7942 61.5631 42.6274 62.0264C42.4606 62.4898 42.3772 62.9809 42.3772 63.4999V71.9791H39.2079V57.6061Z" fill="black"/>
<path d="M68.1546 71.9791H65.1521V70.0331H65.0965C64.6702 70.8671 64.0494 71.4694 63.2339 71.8401C62.4184 72.1923 61.5565 72.3683 60.6484 72.3683C59.5178 72.3683 58.5263 72.1737 57.6737 71.7845C56.8397 71.3768 56.1446 70.83 55.5886 70.1443C55.0326 69.4585 54.6156 68.6523 54.3376 67.7256C54.0596 66.7804 53.9206 65.7703 53.9206 64.6953C53.9206 63.3979 54.0967 62.2766 54.4488 61.3314C54.8009 60.3862 55.2643 59.6078 55.8388 58.9961C56.4319 58.3845 57.0991 57.9397 57.8405 57.6617C58.6004 57.3652 59.3695 57.2169 60.148 57.2169C60.5928 57.2169 61.0469 57.2632 61.5102 57.3559C61.9736 57.43 62.4184 57.5598 62.8446 57.7451C63.2709 57.9304 63.6601 58.1714 64.0123 58.4679C64.383 58.7459 64.6888 59.0795 64.9297 59.4688H64.9853V52.1293H68.1546V71.9791ZM57.0899 64.9455C57.0899 65.5571 57.164 66.1595 57.3123 66.7526C57.4791 67.3457 57.72 67.8739 58.0351 68.3372C58.3687 68.8006 58.7857 69.1712 59.2861 69.4493C59.7866 69.7273 60.3796 69.8663 61.0654 69.8663C61.7697 69.8663 62.372 69.718 62.8724 69.4215C63.3914 69.1249 63.8084 68.7357 64.1235 68.2538C64.4571 67.7719 64.698 67.2345 64.8463 66.6414C65.0131 66.0298 65.0965 65.4089 65.0965 64.7787C65.0965 63.1848 64.7351 61.943 64.0123 61.0534C63.308 60.1638 62.3442 59.719 61.121 59.719C60.3796 59.719 59.7495 59.8765 59.2305 60.1916C58.7301 60.4881 58.3131 60.8866 57.9795 61.387C57.6644 61.8689 57.4328 62.4249 57.2845 63.0551C57.1547 63.6667 57.0899 64.2968 57.0899 64.9455Z" fill="black"/>
<path d="M90.2743 68.782C90.2743 69.1712 90.3206 69.4493 90.4133 69.6161C90.5245 69.7829 90.7284 69.8663 91.0249 69.8663C91.1176 69.8663 91.2288 69.8663 91.3585 69.8663C91.4883 69.8663 91.6365 69.8477 91.8033 69.8107V72.0069C91.6921 72.044 91.5439 72.0811 91.3585 72.1181C91.1917 72.1737 91.0156 72.2201 90.8303 72.2571C90.645 72.2942 90.4596 72.322 90.2743 72.3405C90.089 72.3591 89.9314 72.3683 89.8017 72.3683C89.153 72.3683 88.6155 72.2386 88.1892 71.9791C87.7629 71.7197 87.4849 71.2656 87.3552 70.6169C86.7251 71.2285 85.9466 71.6733 85.0199 71.9513C84.1118 72.2293 83.2314 72.3683 82.3789 72.3683C81.7302 72.3683 81.1093 72.2757 80.5162 72.0903C79.9231 71.9235 79.3949 71.6733 78.9316 71.3397C78.4867 70.9876 78.1253 70.552 77.8473 70.0331C77.5879 69.4956 77.4581 68.8747 77.4581 68.1704C77.4581 67.2808 77.6156 66.558 77.9307 66.0019C78.2643 65.4459 78.6906 65.0104 79.2096 64.6953C79.747 64.3802 80.3401 64.1578 80.9888 64.0281C81.656 63.8798 82.3233 63.7686 82.9905 63.6945C83.565 63.5833 84.1118 63.5091 84.6307 63.4721C85.1497 63.4165 85.6038 63.3331 85.993 63.2219C86.4007 63.1107 86.7158 62.9439 86.9382 62.7215C87.1791 62.4805 87.2996 62.1284 87.2996 61.665C87.2996 61.2573 87.1977 60.9237 86.9938 60.6642C86.8085 60.4047 86.5675 60.2101 86.271 60.0804C85.993 59.9321 85.6779 59.8394 85.3257 59.8024C84.9736 59.7468 84.64 59.719 84.3249 59.719C83.4353 59.719 82.7032 59.9043 82.1287 60.275C81.5541 60.6457 81.2298 61.2202 81.1556 61.9986H77.9863C78.0419 61.0719 78.2643 60.3028 78.6535 59.6912C79.0428 59.0795 79.5339 58.5884 80.127 58.2177C80.7386 57.847 81.4244 57.5876 82.1843 57.4393C82.9441 57.291 83.7226 57.2169 84.5195 57.2169C85.2238 57.2169 85.9188 57.291 86.6046 57.4393C87.2903 57.5876 87.902 57.8285 88.4394 58.1621C88.9955 58.4957 89.4403 58.9313 89.7739 59.4688C90.1075 59.9877 90.2743 60.6271 90.2743 61.387V68.782ZM87.105 64.7787C86.6231 65.0938 86.03 65.2884 85.3257 65.3625C84.6215 65.4181 83.9172 65.5108 83.2129 65.6405C82.8793 65.6961 82.5549 65.7795 82.2399 65.8907C81.9248 65.9834 81.6468 66.1224 81.4058 66.3078C81.1649 66.4746 80.9703 66.7062 80.822 67.0028C80.6923 67.2808 80.6274 67.6237 80.6274 68.0314C80.6274 68.3836 80.7293 68.6801 80.9332 68.921C81.1371 69.162 81.378 69.3566 81.656 69.5049C81.9526 69.6346 82.2677 69.7273 82.6013 69.7829C82.9534 69.8385 83.2685 69.8663 83.5465 69.8663C83.8986 69.8663 84.2786 69.8199 84.6863 69.7273C85.0941 69.6346 85.474 69.4771 85.8262 69.2546C86.1968 69.0322 86.5026 68.7542 86.7436 68.4206C86.9845 68.0685 87.105 67.6422 87.105 67.1418V64.7787Z" fill="black"/>
</svg>
