<svg width="123" height="128" viewBox="0 0 123 128" fill="none" xmlns="http://www.w3.org/2000/svg">
<path d="M57.4971 127.999C59.9199 127.943 62.2449 127.032 64.0609 125.427C65.8768 123.823 67.0667 121.627 67.4201 119.23H47.1895C47.5528 121.692 48.7984 123.939 50.6944 125.552C52.5905 127.165 55.0079 128.035 57.4971 127.999V127.999Z" fill="#29554D"/>
<path d="M114.614 104.345L113.307 103.192C109.597 99.8862 106.35 96.0956 103.653 91.9224C100.708 86.163 98.9424 79.8734 98.4607 73.4226V54.4227C98.4451 52.1149 98.2393 49.8122 97.8453 47.5382C91.3304 46.1991 85.4785 42.6498 81.2801 37.4912C77.0818 32.3327 74.795 25.8818 74.8071 19.2307V16.8076C70.7914 14.8315 66.477 13.5319 62.0379 12.9615V8.11541C62.0379 6.75363 61.497 5.44764 60.5341 4.48472C59.5711 3.5218 58.2651 2.98083 56.9034 2.98083C55.5416 2.98083 54.2356 3.5218 53.2727 4.48472C52.3098 5.44764 51.7688 6.75363 51.7688 8.11541V13.1538C41.8293 14.5559 32.7327 19.5066 26.1583 27.0919C19.5839 34.6772 15.9757 44.3849 15.9999 54.4227V73.4226C15.5182 79.8734 13.7529 86.163 10.8076 91.9224C8.15717 96.0852 4.96225 99.8752 1.30768 103.192L0 104.345V115.191H114.614V104.345Z" fill="#29554D"/>
<path d="M103.651 38.4612C114.271 38.4612 122.881 29.8514 122.881 19.2306C122.881 8.60984 114.271 0 103.651 0C93.0298 0 84.4199 8.60984 84.4199 19.2306C84.4199 29.8514 93.0298 38.4612 103.651 38.4612Z" fill="#FF0000"/>
</svg>
