<svg width="128" height="128" viewBox="0 0 128 128" fill="none" xmlns="http://www.w3.org/2000/svg">
<path d="M63.9991 34.8262V11.4872H11.4863V116.513H116.512V34.8262H63.9991ZM32.4915 104.843H21.9889V93.1738H32.4915V104.843ZM32.4915 81.5043H21.9889V69.8348H32.4915V81.5043ZM32.4915 58.1652H21.9889V46.4957H32.4915V58.1652ZM32.4915 34.8262H21.9889V23.1567H32.4915V34.8262ZM53.4966 104.843H42.994V93.1738H53.4966V104.843ZM53.4966 81.5043H42.994V69.8348H53.4966V81.5043ZM53.4966 58.1652H42.994V46.4957H53.4966V58.1652ZM53.4966 34.8262H42.994V23.1567H53.4966V34.8262ZM106.009 104.843H63.9991V93.1738H74.5017V81.5043H63.9991V69.8348H74.5017V58.1652H63.9991V46.4957H106.009V104.843ZM95.5068 58.1652H85.0043V69.8348H95.5068V58.1652ZM95.5068 81.5043H85.0043V93.1738H95.5068V81.5043Z" fill="#29554D"/>
</svg>
