<svg width="141" height="128" viewBox="0 0 141 128" fill="none" xmlns="http://www.w3.org/2000/svg">
<path d="M89.6 55.552V51.2L44.8 19.2L0 51.2V115.2H32V76.8H57.6V115.2H68.352C65.6 109.376 64 102.912 64 96C64 78.144 74.496 62.784 89.6 55.552ZM140.8 64.704V0H57.6V12.608L102.4 44.608V51.712C104.512 51.392 106.624 51.2 108.8 51.2C121.344 51.2 132.672 56.384 140.8 64.704V64.704ZM102.4 25.6H115.2V38.4H102.4V25.6Z" fill="black"/>
<path d="M140.801 96C140.801 78.336 126.465 64 108.801 64C91.1368 64 76.8008 78.336 76.8008 96C76.8008 113.664 91.1368 128 108.801 128C126.465 128 140.801 113.664 140.801 96ZM105.601 115.2V99.2H89.6008V92.8H105.601V76.8H112.001V92.8H128.001V99.2H112.001V115.2H105.601Z" fill="black"/>
</svg>
