<svg width="128" height="128" viewBox="0 0 128 128" fill="none" xmlns="http://www.w3.org/2000/svg">
<path d="M91.4808 80.5031H85.6993L83.6501 78.5272C90.8222 70.1841 95.1401 59.3528 95.1401 47.57C95.1401 21.2967 73.8433 0 47.57 0C21.2967 0 0 21.2967 0 47.57C0 73.8433 21.2967 95.1401 47.57 95.1401C59.3528 95.1401 70.1841 90.8222 78.5272 83.6501L80.5031 85.6993V91.4808L117.095 128L128 117.095L91.4808 80.5031V80.5031ZM47.57 80.5031C29.3471 80.5031 14.6369 65.793 14.6369 47.57C14.6369 29.3471 29.3471 14.6369 47.57 14.6369C65.793 14.6369 80.5031 29.3471 80.5031 47.57C80.5031 65.793 65.793 80.5031 47.57 80.5031Z" fill="black"/>
</svg>
