<svg width="128" height="128" viewBox="0 0 128 128" fill="none" xmlns="http://www.w3.org/2000/svg">
<path d="M112.936 70.2667C113.21 68.2667 113.347 66.2 113.347 64C113.347 61.8667 113.21 59.7333 112.867 57.7333L126.78 47.2C128.014 46.2667 128.356 44.4667 127.602 43.1333L114.443 21C113.621 19.5333 111.907 19.0667 110.4 19.5333L94.0193 25.9333C90.5924 23.4 86.96 21.2667 82.9163 19.6667L80.4489 2.73333C80.1748 1.13333 78.804 0 77.1591 0H50.8409C49.196 0 47.8938 1.13333 47.6196 2.73333L45.1523 19.6667C41.1086 21.2667 37.4076 23.4667 34.0493 25.9333L17.6689 19.5333C16.1611 19 14.4476 19.5333 13.6252 21L0.534592 43.1333C-0.287854 44.5333 -0.0137058 46.2667 1.35704 47.2L15.2701 57.7333C14.9274 59.7333 14.6532 61.9333 14.6532 64C14.6532 66.0667 14.7903 68.2667 15.133 70.2667L1.21996 80.8C-0.0137057 81.7333 -0.356391 83.5333 0.397518 84.8667L13.5567 107C14.3791 108.467 16.0925 108.933 17.6003 108.467L33.9807 102.067C37.4076 104.6 41.0401 106.733 45.0837 108.333L47.5511 125.267C47.8938 126.867 49.196 128 50.8409 128H77.1591C78.804 128 80.1748 126.867 80.3804 125.267L82.8477 108.333C86.8914 106.733 90.5924 104.6 93.9507 102.067L110.331 108.467C111.839 109 113.552 108.467 114.375 107L127.534 84.8667C128.356 83.4 128.014 81.7333 126.712 80.8L112.936 70.2667ZM64 88C50.4296 88 39.3266 77.2 39.3266 64C39.3266 50.8 50.4296 40 64 40C77.5704 40 88.6734 50.8 88.6734 64C88.6734 77.2 77.5704 88 64 88Z" fill="#29554D"/>
</svg>
