<svg width="128" height="128" viewBox="0 0 128 128" fill="none" xmlns="http://www.w3.org/2000/svg">
<path d="M26 56H6C2.68625 56 0 58.6862 0 62V122C0 125.314 2.68625 128 6 128H26C29.3138 128 32 125.314 32 122V62C32 58.6862 29.3138 56 26 56ZM16 118C12.6862 118 10 115.314 10 112C10 108.686 12.6862 106 16 106C19.3138 106 22 108.686 22 112C22 115.314 19.3138 118 16 118ZM96 20.363C96 30.967 89.5075 36.915 87.6807 44H113.112C121.461 44 127.961 50.9365 128 58.5245C128.021 63.009 126.113 67.8368 123.14 70.8238L123.113 70.8512C125.572 76.6855 125.172 84.8605 120.785 90.7185C122.956 97.1922 120.768 105.145 116.69 109.408C117.765 113.807 117.251 117.552 115.153 120.566C110.05 127.897 97.404 128 86.7097 128L85.9985 128C73.9267 127.995 64.047 123.6 56.1085 120.068C52.1193 118.294 46.9033 116.097 42.9458 116.024C41.3108 115.994 40 114.66 40 113.024V59.582C40 58.782 40.3205 58.0143 40.8895 57.4518C50.793 47.6658 55.0515 37.305 63.1688 29.174C66.8698 25.466 68.2157 19.865 69.517 14.4485C70.6287 9.82325 72.9542 0 78 0C84 0 96 2 96 20.363Z" fill="black"/>
</svg>
