<svg width="133" height="128" viewBox="0 0 133 128" fill="none" xmlns="http://www.w3.org/2000/svg">
<path d="M132.414 14L132.414 74C132.414 77.3138 129.635 80 126.207 80L105.518 80C102.089 80 99.3106 77.3138 99.3106 74L99.3106 14C99.3106 10.6863 102.089 8 105.518 8L126.207 8C129.635 8 132.414 10.6862 132.414 14ZM122.069 64C122.069 60.6863 119.29 58 115.862 58C112.434 58 109.655 60.6863 109.655 64C109.655 67.3138 112.434 70 115.862 70C119.29 70 122.069 67.3138 122.069 64ZM51.7244 128C56.9441 128 59.3498 118.177 60.4997 113.551C61.846 108.135 63.2382 102.534 67.0668 98.8258C75.464 90.6948 79.8693 80.334 90.1143 70.548C90.4059 70.2694 90.6373 69.9377 90.7953 69.572C90.9532 69.2064 91.0345 68.814 91.0345 68.4178L91.0345 14.9753C91.0345 13.34 89.6785 12.0058 87.9872 11.9758C83.8929 11.9033 78.4973 9.706 74.3705 7.93126C66.1583 4.39951 55.9376 0.00425669 43.4498 7.7775e-06L42.7143 7.8418e-06C31.6513 8.80896e-06 18.5687 0.10326 13.29 7.43426C11.1196 10.4485 10.5884 14.1928 11.7 18.5923C7.48137 22.8555 5.21818 30.808 7.46326 37.2815C2.92602 43.1395 2.51249 51.3145 5.05603 57.1488L5.02758 57.1763C1.9518 60.1635 -0.0214743 64.991 0.000250214 69.4755C0.0405957 77.0635 6.765 84 15.4019 84L41.7098 84C39.8201 91.085 33.1037 97.033 33.1037 107.637C33.1037 126 45.5175 128 51.7244 128Z" fill="black"/>
</svg>
