<svg width="178" height="130" viewBox="0 0 178 130" fill="none" xmlns="http://www.w3.org/2000/svg">
<path d="M173.524 55.5097C177.858 61.1783 177.858 68.8309 173.524 74.4903C159.874 92.3097 127.124 129 88.8885 129C50.6531 129 17.9034 92.3097 4.25306 74.4903C2.14457 71.7761 1 68.437 1 65C1 61.563 2.14457 58.2239 4.25306 55.5097C17.9034 37.6903 50.6531 1 88.8885 1C127.124 1 159.874 37.6903 173.524 55.5097V55.5097Z" stroke="#29554D" stroke-width="1.5" stroke-linecap="round" stroke-linejoin="round"/>
<path d="M88.8876 92.43C104.036 92.43 116.316 80.1498 116.316 65.0014C116.316 49.8531 104.036 37.5729 88.8876 37.5729C73.7392 37.5729 61.459 49.8531 61.459 65.0014C61.459 80.1498 73.7392 92.43 88.8876 92.43Z" stroke="#29554D" stroke-width="1.5" stroke-linecap="round" stroke-linejoin="round"/>
</svg>
