<svg width="10" height="10" viewBox="0 0 10 10" fill="none" xmlns="http://www.w3.org/2000/svg">
<path d="M5.0002 1.99996C4.47873 2.00062 3.9788 2.20807 3.61006 2.57681C3.24131 2.94555 3.03386 3.44548 3.0332 3.96696H4.0332C4.0332 3.43346 4.4672 2.99996 5.0002 2.99996C5.5332 2.99996 5.9672 3.43346 5.9672 3.96696C5.9672 4.26596 5.7267 4.48296 5.3592 4.77996C5.23915 4.87401 5.12384 4.97396 5.0137 5.07946C4.5147 5.57796 4.5002 6.10746 4.5002 6.16646V6.49996H5.5002L5.4997 6.18346C5.5002 6.17546 5.5162 5.99046 5.7202 5.78696C5.7952 5.71196 5.8897 5.63696 5.9877 5.55796C6.3772 5.24246 6.9667 4.76596 6.9667 3.96696C6.96631 3.44548 6.75901 2.94548 6.39032 2.57669C6.02163 2.20791 5.52168 2.00049 5.0002 1.99996ZM4.5002 6.99996H5.5002V7.99996H4.5002V6.99996Z" fill="black"/>
<path d="M5 0C2.243 0 0 2.243 0 5C0 7.757 2.243 10 5 10C7.757 10 10 7.757 10 5C10 2.243 7.757 0 5 0ZM5 9C2.7945 9 1 7.2055 1 5C1 2.7945 2.7945 1 5 1C7.2055 1 9 2.7945 9 5C9 7.2055 7.2055 9 5 9Z" fill="black"/>
</svg>
