<svg width="11" height="11" viewBox="0 0 11 11" fill="none" xmlns="http://www.w3.org/2000/svg">
<path d="M5.90856 0.18C5.85703 0.123306 5.79422 0.0780072 5.72416 0.0470097C5.65409 0.0160123 5.57833 0 5.50171 0C5.4251 0 5.34933 0.0160123 5.27927 0.0470097C5.2092 0.0780072 5.14639 0.123306 5.09486 0.18L0.146691 5.67797C0.0737261 5.75664 0.0253752 5.85494 0.00759844 5.96075C-0.0101783 6.06657 0.003396 6.17527 0.0466482 6.27347C0.0899004 6.37166 0.16094 6.45505 0.25101 6.51336C0.341081 6.57168 0.446245 6.60236 0.553541 6.60163H1.65313V10.4502C1.65313 10.596 1.71106 10.7359 1.81417 10.839C1.91727 10.9421 2.05712 11 2.20293 11H8.80049C8.94631 11 9.08615 10.9421 9.18926 10.839C9.29236 10.7359 9.35029 10.596 9.35029 10.4502V6.60163H10.4499C10.5957 6.60163 10.7355 6.5437 10.8386 6.44059C10.9418 6.33749 10.9997 6.19764 10.9997 6.05183C11.0007 5.91367 10.9497 5.7802 10.8567 5.67797L5.90856 0.18Z" fill="black"/>
</svg>
