<svg width="97" height="128" viewBox="0 0 97 128" fill="none" xmlns="http://www.w3.org/2000/svg">
<path d="M34.466 126.644C35.2313 127.243 36.1232 127.659 37.0738 127.861C38.0244 128.063 39.0085 128.045 39.9512 127.808L91.1542 115.008C92.54 114.663 93.7706 113.865 94.6498 112.74C95.5291 111.614 96.0064 110.227 96.0057 108.799V19.194C96.0053 17.7664 95.5275 16.3798 94.6485 15.2549C93.7694 14.1299 92.5394 13.3312 91.1542 12.9857L39.9512 0.184927C39.0081 -0.046451 38.0249 -0.0608994 37.0755 0.142669C36.1261 0.346237 35.2353 0.762518 34.47 1.36018C33.7048 1.95784 33.0851 2.7213 32.6576 3.5931C32.23 4.4649 32.0059 5.42232 32.0019 6.39329V12.7937H6.40038C4.70289 12.7937 3.07493 13.468 1.87463 14.6683C0.674325 15.8686 0 17.4966 0 19.194V108.799C0 110.497 0.674325 112.125 1.87463 113.325C3.07493 114.525 4.70289 115.2 6.40038 115.2H32.0019V121.6C32.0019 123.571 32.9107 125.434 34.466 126.644ZM44.8026 14.5922L83.2049 24.1927V103.801L44.8026 113.401V14.5922ZM12.8008 102.399V25.5944H32.0019V102.399H12.8008Z" fill="black"/>
<path d="M59.1524 71.4157C62.007 70.6989 64.0039 68.1387 64.0039 65.2009V62.788C64.003 61.0905 63.3279 59.4629 62.127 58.2632C60.9261 57.0635 59.2978 56.39 57.6003 56.3908C55.9028 56.3917 54.2752 57.0668 53.0755 58.2677C51.8758 59.4686 51.2023 61.0969 51.2031 62.7944V65.2073C51.2034 66.1795 51.4251 67.1389 51.8515 68.0126C52.2779 68.8863 52.8977 69.6514 53.6639 70.2498C54.4302 70.8482 55.3226 71.2642 56.2736 71.4663C57.2246 71.6683 58.2091 71.651 59.1524 71.4157Z" fill="black"/>
</svg>
