<svg width="97" height="128" viewBox="0 0 97 128" fill="#29554D" xmlns="http://www.w3.org/2000/svg">
<path d="M34.466 126.644C35.2313 127.243 36.1232 127.659 37.0738 127.861C38.0244 128.063 39.0085 128.045 39.9512 127.808L91.1542 115.008C92.54 114.663 93.7706 113.865 94.6498 112.74C95.5291 111.614 96.0064 110.227 96.0057 108.799V19.194C96.0053 17.7664 95.5275 16.3798 94.6485 15.2549C93.7694 14.1299 92.5394 13.3312 91.1542 12.9857L39.9512 0.184927C39.0081 -0.046451 38.0249 -0.0608994 37.0755 0.142669C36.1261 0.346237 35.2353 0.762518 34.47 1.36018C33.7048 1.95784 33.0851 2.7213 32.6576 3.5931C32.23 4.4649 32.0059 5.42232 32.0019 6.39329V12.7937H6.40038C4.70289 12.7937 3.07493 13.468 1.87463 14.6683C0.674325 15.8686 0 17.4966 0 19.194V108.799C0 110.497 0.674325 112.125 1.87463 113.325C3.07493 114.525 4.70289 115.2 6.40038 115.2H32.0019V121.6C32.0019 123.571 32.9107 125.434 34.466 126.644ZM44.8026 14.5922L83.2049 24.1927V103.801L44.8026 113.401V14.5922ZM12.8008 102.399V25.5944H32.0019V102.399H12.8008Z" fill="#29554D"/>
<path d="M59.1523 71.4158C62.0068 70.6989 64.0038 68.1388 64.0038 65.201V62.788C64.0029 61.0906 63.3278 59.4629 62.1269 58.2632C60.926 57.0635 59.2977 56.39 57.6002 56.3909C55.9027 56.3917 54.2751 57.0669 53.0754 58.2678C51.8757 59.4687 51.2022 61.097 51.203 62.7945V65.2074C51.2033 66.1796 51.425 67.139 51.8514 68.0127C52.2778 68.8864 52.8976 69.6515 53.6638 70.2499C54.43 70.8483 55.3225 71.2643 56.2735 71.4663C57.2245 71.6683 58.209 71.651 59.1523 71.4158Z" fill="#29554D"/>
</svg>
