<svg width="128" height="128" viewBox="0 0 128 128" fill="none" xmlns="http://www.w3.org/2000/svg">
<path d="M64 83.2001C52.224 83.2001 51.2 77.6961 51.2 76.8001H38.4C38.4 82.6881 42.624 93.1201 57.6 95.4881V102.4H70.4V95.4881C83.2 93.3121 89.6 85.0561 89.6 76.8001C89.6 69.6321 86.272 57.6001 64 57.6001C51.2 57.6001 51.2 53.5681 51.2 51.2001C51.2 48.8321 55.68 44.8001 64 44.8001C72.32 44.8001 72.896 48.8961 72.96 51.2001H85.76C85.6735 46.8401 84.1054 42.6395 81.3136 39.2894C78.5219 35.9393 74.6729 33.6394 70.4 32.7681V25.6001H57.6V32.5761C44.8 34.6881 38.4 42.9441 38.4 51.2001C38.4 58.3681 41.728 70.4001 64 70.4001C76.8 70.4001 76.8 74.7521 76.8 76.8001C76.8 78.8481 72.832 83.2001 64 83.2001Z" fill="#29554D"/>
<path d="M19.2 0H0V12.8H12.8V121.6C12.8 123.297 13.4743 124.925 14.6745 126.125C15.8748 127.326 17.5026 128 19.2 128H108.8C110.497 128 112.125 127.326 113.325 126.125C114.526 124.925 115.2 123.297 115.2 121.6V12.8H128V0H19.2ZM102.4 115.2H25.6V12.8H102.4V115.2Z" fill="#29554D"/>
</svg>
