<svg width="109" height="128" viewBox="0 0 109 128" fill="none" xmlns="http://www.w3.org/2000/svg">
<path d="M99.8582 45.7143H63.5461V9.14286H9.07801V118.857H99.8582V45.7143ZM96.0999 36.5714L72.6241 12.928V36.5714H96.0999ZM4.53901 0H72.6241L108.936 36.5714V123.429C108.936 124.641 108.458 125.804 107.607 126.661C106.756 127.518 105.601 128 104.397 128H4.53901C3.33519 128 2.18067 127.518 1.32945 126.661C0.478216 125.804 0 124.641 0 123.429V4.57143C0 3.35901 0.478216 2.19625 1.32945 1.33894C2.18067 0.481631 3.33519 0 4.53901 0ZM27.234 64H81.7021V73.1429H27.234V64ZM27.234 36.5714H49.9291V45.7143H27.234V36.5714ZM27.234 91.4286H81.7021V100.571H27.234V91.4286Z" fill="black"/>
</svg>
