<svg width="126" height="114" viewBox="0 0 126 114" fill="none" xmlns="http://www.w3.org/2000/svg">
<path d="M79.6727 49.3971V45.5273L39.8364 17.0727L0 45.5273V102.436H28.4545V68.2909H51.2182V102.436H60.7789C58.3318 97.2576 56.9091 91.5098 56.9091 85.3636C56.9091 69.486 66.2422 55.8278 79.6727 49.3971ZM125.2 57.5351V0H51.2182V11.2111L91.0545 39.6656V45.9825C92.9325 45.698 94.8105 45.5273 96.7455 45.5273C107.9 45.5273 117.973 50.1369 125.2 57.5351ZM91.0545 22.7636H102.436V34.1455H91.0545V22.7636Z" fill="black"/>
<path d="M125.2 85.3637C125.2 69.6568 112.452 56.9092 96.7456 56.9092C81.0387 56.9092 68.291 69.6568 68.291 85.3637C68.291 101.071 81.0387 113.818 96.7456 113.818C112.452 113.818 125.2 101.071 125.2 85.3637ZM93.9001 102.436V88.2092H79.6728V82.5183H93.9001V68.291H99.591V82.5183H113.818V88.2092H99.591V102.436H93.9001Z" fill="black"/>
</svg>
