<svg width="30" height="29" viewBox="0 0 30 29" fill="none" xmlns="http://www.w3.org/2000/svg">
<path d="M30 3.17187L30 16.7656C30 17.5164 29.3704 18.125 28.5938 18.125L23.9063 18.125C23.1296 18.125 22.5 17.5164 22.5 16.7656L22.5 3.17188C22.5 2.4211 23.1296 1.8125 23.9062 1.8125L28.5938 1.8125C29.3704 1.8125 30 2.4211 30 3.17187ZM27.6563 14.5C27.6563 13.7492 27.0267 13.1406 26.25 13.1406C25.4733 13.1406 24.8438 13.7492 24.8438 14.5C24.8438 15.2508 25.4733 15.8594 26.25 15.8594C27.0267 15.8594 27.6563 15.2508 27.6563 14.5ZM11.7188 29C12.9013 29 13.4464 26.7744 13.7069 25.7265C14.0119 24.4993 14.3273 23.2303 15.1948 22.3902C17.0972 20.548 18.0953 18.2007 20.4165 15.9835C20.4825 15.9204 20.535 15.8453 20.5707 15.7624C20.6065 15.6796 20.6249 15.5907 20.6249 15.5009L20.6249 3.39283C20.6249 3.02234 20.3177 2.72005 19.9345 2.71326C19.0069 2.69683 17.7845 2.19902 16.8495 1.79692C14.9889 0.996763 12.6733 0.000964405 9.84404 1.76209e-06L9.6774 1.77666e-06C7.17094 1.99578e-06 4.20691 0.0233948 3.01096 1.68432C2.51924 2.36724 2.39889 3.21555 2.65072 4.21231C1.69494 5.1782 1.18219 6.97994 1.69084 8.44659C0.66287 9.7738 0.569179 11.6259 1.14545 12.9478L1.139 12.954C0.442147 13.6308 -0.0049225 14.7245 -5.31267e-07 15.7405C0.00914024 17.4597 1.53264 19.0313 3.48943 19.0313L9.44983 19.0313C9.02168 20.6364 7.5 21.984 7.5 24.3865C7.5 28.5469 10.3125 29 11.7188 29Z" fill="black"/>
</svg>
