<svg width="9" height="16" viewBox="0 0 9 16" fill="none" xmlns="http://www.w3.org/2000/svg">
<path d="M1.14234 15.9979C0.875895 15.9985 0.617684 15.9057 0.412525 15.7357C0.297057 15.6399 0.20161 15.5224 0.131648 15.3897C0.0616867 15.257 0.0185865 15.1118 0.00481609 14.9625C-0.00895436 14.8131 0.0068757 14.6625 0.0513992 14.5193C0.0959228 14.3761 0.168264 14.243 0.264282 14.1278L5.37295 8.01564L0.446736 1.89208C0.352013 1.77543 0.281276 1.64122 0.238592 1.49715C0.195908 1.35308 0.182117 1.202 0.198012 1.05259C0.213907 0.90317 0.259175 0.758369 0.331213 0.626506C0.403252 0.494642 0.500642 0.378315 0.617784 0.284212C0.735769 0.180401 0.873938 0.102097 1.02362 0.0542161C1.1733 0.00633482 1.33127 -0.0100901 1.4876 0.00597127C1.64393 0.0220327 1.79525 0.0702341 1.93207 0.14755C2.06889 0.224867 2.18825 0.329629 2.28266 0.455262L7.79045 7.29723C7.95817 7.50127 8.04986 7.75721 8.04986 8.02134C8.04986 8.28547 7.95817 8.54141 7.79045 8.74545L2.08881 15.5874C1.97441 15.7254 1.8291 15.8345 1.66465 15.9058C1.5002 15.9772 1.32126 16.0087 1.14234 15.9979Z" fill="black"/>
</svg>
